<svg width="1800" height="500" viewBox="0 0 1800 500" fill="none" xmlns="http://www.w3.org/2000/svg">
<path d="M443 206V351" stroke="black" stroke-width="32" stroke-linecap="round"/>
<path d="M442.574 351L317 423.5" stroke="black" stroke-width="32" stroke-linecap="round"/>
<path d="M124.344 99.5L249.918 27" stroke="black" stroke-width="32" stroke-linecap="round"/>
<path d="M182.574 423.5L57 351" stroke="black" stroke-width="32" stroke-linecap="round"/>
<path d="M375.574 99.5L250 27" stroke="black" stroke-width="32" stroke-linecap="round"/>
<path d="M57 206V351" stroke="black" stroke-width="32" stroke-linecap="round"/>
<path d="M250 475V243" stroke="black" stroke-width="32" stroke-linecap="round"/>
<path d="M249.918 243L49 127" stroke="black" stroke-width="32" stroke-linecap="round"/>
<path d="M251 243L451 127" stroke="black" stroke-width="32" stroke-linecap="round"/>
<path d="M682.963 349V267.187L616 151H649.55L697.538 234.187L745.525 151H779.075L712.113 267.187V349H682.963ZM818.179 353.125C807.179 353.125 797.966 351.108 790.541 347.075C783.116 342.95 777.479 337.542 773.629 330.85C769.87 324.067 767.991 316.642 767.991 308.575C767.991 301.058 769.32 294.458 771.979 288.775C774.637 283.092 778.579 278.279 783.804 274.337C789.029 270.304 795.445 267.05 803.054 264.575C809.654 262.65 817.125 260.954 825.466 259.487C833.808 258.021 842.562 256.646 851.729 255.362C860.987 254.079 870.154 252.796 879.229 251.512L868.779 257.287C868.962 245.646 866.487 237.029 861.354 231.437C856.312 225.754 847.604 222.912 835.229 222.912C827.437 222.912 820.287 224.746 813.779 228.412C807.27 231.987 802.733 237.946 800.166 246.287L773.354 238.037C777.02 225.296 783.987 215.167 794.254 207.65C804.612 200.133 818.362 196.375 835.504 196.375C848.795 196.375 860.345 198.667 870.154 203.25C880.054 207.742 887.295 214.892 891.879 224.7C894.262 229.558 895.729 234.692 896.279 240.1C896.829 245.508 897.104 251.329 897.104 257.562V349H871.666V315.037L876.616 319.437C870.475 330.804 862.637 339.283 853.104 344.875C843.662 350.375 832.02 353.125 818.179 353.125ZM823.266 329.612C831.425 329.612 838.437 328.192 844.304 325.35C850.17 322.417 854.891 318.704 858.466 314.212C862.041 309.721 864.379 305.046 865.479 300.187C867.037 295.787 867.908 290.837 868.091 285.337C868.366 279.837 868.504 275.437 868.504 272.137L877.854 275.575C868.779 276.95 860.529 278.187 853.104 279.287C845.679 280.387 838.941 281.487 832.891 282.587C826.933 283.596 821.616 284.833 816.941 286.3C813 287.675 809.47 289.325 806.354 291.25C803.329 293.175 800.9 295.512 799.066 298.262C797.325 301.012 796.454 304.358 796.454 308.3C796.454 312.15 797.416 315.725 799.341 319.025C801.266 322.233 804.2 324.8 808.141 326.725C812.083 328.65 817.125 329.612 823.266 329.612ZM932.671 349L932.809 151H961.959V272L1020.26 200.5H1056.83L995.234 274.75L1063.16 349H1024.11L961.959 277.5V349H932.671ZM1138.82 353.125C1123.97 353.125 1111.1 349.779 1100.19 343.087C1089.28 336.396 1080.85 327.183 1074.89 315.45C1069.02 303.625 1066.09 290.012 1066.09 274.612C1066.09 259.121 1069.11 245.508 1075.16 233.775C1081.21 221.95 1089.69 212.783 1100.6 206.275C1111.51 199.675 1124.25 196.375 1138.82 196.375C1153.67 196.375 1166.55 199.721 1177.46 206.412C1188.37 213.104 1196.8 222.317 1202.76 234.05C1208.72 245.783 1211.7 259.304 1211.7 274.612C1211.7 290.104 1208.67 303.762 1202.62 315.587C1196.67 327.321 1188.23 336.533 1177.32 343.225C1166.42 349.825 1153.58 353.125 1138.82 353.125ZM1138.82 326.037C1153.03 326.037 1163.62 321.271 1170.59 311.737C1177.65 302.112 1181.17 289.737 1181.17 274.612C1181.17 259.121 1177.6 246.746 1170.45 237.487C1163.39 228.137 1152.85 223.462 1138.82 223.462C1129.2 223.462 1121.27 225.662 1115.04 230.062C1108.8 234.371 1104.17 240.375 1101.15 248.075C1098.12 255.683 1096.61 264.529 1096.61 274.612C1096.61 290.196 1100.19 302.662 1107.34 312.012C1114.49 321.362 1124.98 326.037 1138.82 326.037ZM1275.53 349L1218.05 151H1248.16L1289.83 300.737L1331.49 151.137L1361.74 151L1403.4 300.737L1445.06 151H1475.31L1417.7 349H1389.1L1346.61 200.912L1304.13 349H1275.53ZM1547.87 353.125C1533.11 353.125 1520.14 349.917 1508.95 343.5C1497.86 336.992 1489.2 327.962 1482.97 316.412C1476.82 304.771 1473.75 291.296 1473.75 275.987C1473.75 259.762 1476.78 245.692 1482.83 233.775C1488.97 221.858 1497.49 212.646 1508.4 206.137C1519.31 199.629 1532.01 196.375 1546.49 196.375C1561.62 196.375 1574.49 199.904 1585.13 206.963C1595.76 213.929 1603.69 223.875 1608.92 236.8C1614.23 249.725 1616.34 265.079 1615.24 282.862H1586.5V272.412C1586.32 255.179 1583.02 242.437 1576.6 234.187C1570.28 225.937 1560.61 221.812 1547.59 221.812C1533.2 221.812 1522.38 226.35 1515.14 235.425C1507.9 244.5 1504.28 257.608 1504.28 274.75C1504.28 291.067 1507.9 303.717 1515.14 312.7C1522.38 321.592 1532.83 326.037 1546.49 326.037C1555.47 326.037 1563.22 324.021 1569.73 319.987C1576.33 315.862 1581.46 309.996 1585.13 302.387L1613.32 311.325C1607.54 324.617 1598.79 334.929 1587.05 342.262C1575.32 349.504 1562.26 353.125 1547.87 353.125ZM1494.93 282.862V260.45H1600.94V282.862H1494.93ZM1715.8 353.125C1701.59 353.125 1689.68 349.688 1680.05 342.812C1670.43 335.846 1663.14 326.45 1658.19 314.625C1653.24 302.8 1650.76 289.462 1650.76 274.612C1650.76 259.762 1653.19 246.425 1658.05 234.6C1663 222.775 1670.24 213.471 1679.78 206.687C1689.4 199.812 1701.23 196.375 1715.25 196.375C1729.19 196.375 1741.19 199.812 1751.28 206.687C1761.45 213.471 1769.29 222.775 1774.79 234.6C1780.29 246.333 1783.04 259.671 1783.04 274.612C1783.04 289.462 1780.29 302.846 1774.79 314.762C1769.38 326.587 1761.64 335.937 1751.55 342.812C1741.56 349.688 1729.64 353.125 1715.8 353.125ZM1645.95 349V151H1674.83V242.162H1671.53V349H1645.95ZM1711.81 327.137C1720.98 327.137 1728.54 324.8 1734.5 320.125C1740.55 315.45 1745.04 309.171 1747.98 301.287C1751 293.312 1752.51 284.421 1752.51 274.612C1752.51 264.896 1751 256.096 1747.98 248.212C1745.04 240.329 1740.51 234.05 1734.36 229.375C1728.22 224.7 1720.39 222.362 1710.85 222.362C1701.87 222.362 1694.44 224.562 1688.58 228.962C1682.8 233.362 1678.49 239.504 1675.65 247.387C1672.9 255.271 1671.53 264.346 1671.53 274.612C1671.53 284.879 1672.9 293.954 1675.65 301.837C1678.4 309.721 1682.76 315.908 1688.71 320.4C1694.67 324.892 1702.37 327.137 1711.81 327.137Z" fill="black"/>
</svg>
